<mxfile host="app.diagrams.net" modified="2024-01-04T10:40:50.123Z" agent="Mozilla/5.0 (Windows NT 10.0; Win64; x64) AppleWebKit/537.36 (KHTML, like Gecko) Chrome/119.0.0.0 Safari/537.36 Edg/119.0.0.0" etag="5rPp6VwvZSka4R5QCzZv" version="22.1.16" type="github">
  <diagram id="C5RBs43oDa-KdzZeNtuy" name="Page-1">
    <mxGraphModel dx="1386" dy="759" grid="1" gridSize="10" guides="1" tooltips="1" connect="1" arrows="1" fold="1" page="1" pageScale="1" pageWidth="827" pageHeight="1169" math="0" shadow="0">
      <root>
        <mxCell id="WIyWlLk6GJQsqaUBKTNV-0" />
        <mxCell id="WIyWlLk6GJQsqaUBKTNV-1" parent="WIyWlLk6GJQsqaUBKTNV-0" />
        <mxCell id="do9_wxUMpQGBXien9zyn-5" value="class Board(ABC)" style="swimlane;fontStyle=1;align=center;verticalAlign=top;childLayout=stackLayout;horizontal=1;startSize=26;horizontalStack=0;resizeParent=1;resizeParentMax=0;resizeLast=0;collapsible=1;marginBottom=0;whiteSpace=wrap;html=1;" vertex="1" parent="WIyWlLk6GJQsqaUBKTNV-1">
          <mxGeometry x="130" y="20" width="160" height="128" as="geometry" />
        </mxCell>
        <mxCell id="do9_wxUMpQGBXien9zyn-6" value="+def&amp;nbsp; reset(self)&amp;nbsp; &amp;nbsp; &amp;nbsp; abstractmethod" style="text;strokeColor=default;fillColor=none;align=left;verticalAlign=top;spacingLeft=4;spacingRight=4;overflow=hidden;rotatable=0;points=[[0,0.5],[1,0.5]];portConstraint=eastwest;whiteSpace=wrap;html=1;" vertex="1" parent="do9_wxUMpQGBXien9zyn-5">
          <mxGeometry y="26" width="160" height="34" as="geometry" />
        </mxCell>
        <mxCell id="do9_wxUMpQGBXien9zyn-11" value="+def&amp;nbsp;&amp;nbsp;power_off&lt;span style=&quot;background-color: initial;&quot;&gt;(self)&amp;nbsp; &amp;nbsp; &amp;nbsp; abstractmethod&lt;/span&gt;" style="text;strokeColor=default;fillColor=none;align=left;verticalAlign=top;spacingLeft=4;spacingRight=4;overflow=hidden;rotatable=0;points=[[0,0.5],[1,0.5]];portConstraint=eastwest;whiteSpace=wrap;html=1;" vertex="1" parent="do9_wxUMpQGBXien9zyn-5">
          <mxGeometry y="60" width="160" height="34" as="geometry" />
        </mxCell>
        <mxCell id="do9_wxUMpQGBXien9zyn-12" value="+def&amp;nbsp;&amp;nbsp;power_on&lt;span style=&quot;background-color: initial;&quot;&gt;(self)&amp;nbsp; &amp;nbsp; &amp;nbsp; abstractmethod&lt;/span&gt;" style="text;strokeColor=default;fillColor=none;align=left;verticalAlign=top;spacingLeft=4;spacingRight=4;overflow=hidden;rotatable=0;points=[[0,0.5],[1,0.5]];portConstraint=eastwest;whiteSpace=wrap;html=1;" vertex="1" parent="do9_wxUMpQGBXien9zyn-5">
          <mxGeometry y="94" width="160" height="34" as="geometry" />
        </mxCell>
        <mxCell id="do9_wxUMpQGBXien9zyn-14" value="class DevBoard(Board&lt;span style=&quot;background-color: initial;&quot;&gt;)&lt;/span&gt;" style="swimlane;fontStyle=1;align=center;verticalAlign=top;childLayout=stackLayout;horizontal=1;startSize=26;horizontalStack=0;resizeParent=1;resizeParentMax=0;resizeLast=0;collapsible=1;marginBottom=0;whiteSpace=wrap;html=1;" vertex="1" parent="WIyWlLk6GJQsqaUBKTNV-1">
          <mxGeometry x="130" y="230" width="160" height="366" as="geometry" />
        </mxCell>
        <mxCell id="do9_wxUMpQGBXien9zyn-15" value="+def __init(self, name&lt;span style=&quot;background-color: initial;&quot;&gt;):&lt;/span&gt;" style="text;strokeColor=default;fillColor=none;align=left;verticalAlign=top;spacingLeft=4;spacingRight=4;overflow=hidden;rotatable=0;points=[[0,0.5],[1,0.5]];portConstraint=eastwest;whiteSpace=wrap;html=1;" vertex="1" parent="do9_wxUMpQGBXien9zyn-14">
          <mxGeometry y="26" width="160" height="34" as="geometry" />
        </mxCell>
        <mxCell id="do9_wxUMpQGBXien9zyn-19" value="&amp;nbsp; &amp;nbsp; &amp;nbsp;self.name" style="text;strokeColor=default;fillColor=none;align=left;verticalAlign=top;spacingLeft=4;spacingRight=4;overflow=hidden;rotatable=0;points=[[0,0.5],[1,0.5]];portConstraint=eastwest;whiteSpace=wrap;html=1;" vertex="1" parent="do9_wxUMpQGBXien9zyn-14">
          <mxGeometry y="60" width="160" height="34" as="geometry" />
        </mxCell>
        <mxCell id="do9_wxUMpQGBXien9zyn-21" value="&amp;nbsp; &amp;nbsp; &amp;nbsp;self.ctl" style="text;strokeColor=default;fillColor=none;align=left;verticalAlign=top;spacingLeft=4;spacingRight=4;overflow=hidden;rotatable=0;points=[[0,0.5],[1,0.5]];portConstraint=eastwest;whiteSpace=wrap;html=1;" vertex="1" parent="do9_wxUMpQGBXien9zyn-14">
          <mxGeometry y="94" width="160" height="34" as="geometry" />
        </mxCell>
        <mxCell id="do9_wxUMpQGBXien9zyn-22" value="&amp;nbsp; &amp;nbsp; &amp;nbsp;self.serial_ports" style="text;strokeColor=default;fillColor=none;align=left;verticalAlign=top;spacingLeft=4;spacingRight=4;overflow=hidden;rotatable=0;points=[[0,0.5],[1,0.5]];portConstraint=eastwest;whiteSpace=wrap;html=1;" vertex="1" parent="do9_wxUMpQGBXien9zyn-14">
          <mxGeometry y="128" width="160" height="34" as="geometry" />
        </mxCell>
        <mxCell id="do9_wxUMpQGBXien9zyn-23" value="&amp;nbsp; &amp;nbsp; &amp;nbsp;self.board_type" style="text;strokeColor=default;fillColor=none;align=left;verticalAlign=top;spacingLeft=4;spacingRight=4;overflow=hidden;rotatable=0;points=[[0,0.5],[1,0.5]];portConstraint=eastwest;whiteSpace=wrap;html=1;" vertex="1" parent="do9_wxUMpQGBXien9zyn-14">
          <mxGeometry y="162" width="160" height="34" as="geometry" />
        </mxCell>
        <mxCell id="do9_wxUMpQGBXien9zyn-25" value="&amp;nbsp; &amp;nbsp; &amp;nbsp;self.board_rev" style="text;strokeColor=default;fillColor=none;align=left;verticalAlign=top;spacingLeft=4;spacingRight=4;overflow=hidden;rotatable=0;points=[[0,0.5],[1,0.5]];portConstraint=eastwest;whiteSpace=wrap;html=1;" vertex="1" parent="do9_wxUMpQGBXien9zyn-14">
          <mxGeometry y="196" width="160" height="34" as="geometry" />
        </mxCell>
        <mxCell id="do9_wxUMpQGBXien9zyn-24" value="&amp;nbsp; &amp;nbsp; &amp;nbsp;self.board_desc" style="text;strokeColor=default;fillColor=none;align=left;verticalAlign=top;spacingLeft=4;spacingRight=4;overflow=hidden;rotatable=0;points=[[0,0.5],[1,0.5]];portConstraint=eastwest;whiteSpace=wrap;html=1;" vertex="1" parent="do9_wxUMpQGBXien9zyn-14">
          <mxGeometry y="230" width="160" height="34" as="geometry" />
        </mxCell>
        <mxCell id="do9_wxUMpQGBXien9zyn-26" value="&amp;nbsp; &amp;nbsp; &amp;nbsp;self.config_path" style="text;strokeColor=default;fillColor=none;align=left;verticalAlign=top;spacingLeft=4;spacingRight=4;overflow=hidden;rotatable=0;points=[[0,0.5],[1,0.5]];portConstraint=eastwest;whiteSpace=wrap;html=1;" vertex="1" parent="do9_wxUMpQGBXien9zyn-14">
          <mxGeometry y="264" width="160" height="34" as="geometry" />
        </mxCell>
        <mxCell id="do9_wxUMpQGBXien9zyn-16" value="+def&amp;nbsp;&amp;nbsp;power_off&lt;span style=&quot;background-color: initial;&quot;&gt;(self)&amp;nbsp; &amp;nbsp; &amp;nbsp; abstractmethod&lt;/span&gt;" style="text;strokeColor=default;fillColor=none;align=left;verticalAlign=top;spacingLeft=4;spacingRight=4;overflow=hidden;rotatable=0;points=[[0,0.5],[1,0.5]];portConstraint=eastwest;whiteSpace=wrap;html=1;" vertex="1" parent="do9_wxUMpQGBXien9zyn-14">
          <mxGeometry y="298" width="160" height="34" as="geometry" />
        </mxCell>
        <mxCell id="do9_wxUMpQGBXien9zyn-17" value="+def&amp;nbsp;&amp;nbsp;power_on&lt;span style=&quot;background-color: initial;&quot;&gt;(self)&amp;nbsp; &amp;nbsp; &amp;nbsp; abstractmethod&lt;/span&gt;" style="text;strokeColor=default;fillColor=none;align=left;verticalAlign=top;spacingLeft=4;spacingRight=4;overflow=hidden;rotatable=0;points=[[0,0.5],[1,0.5]];portConstraint=eastwest;whiteSpace=wrap;html=1;" vertex="1" parent="do9_wxUMpQGBXien9zyn-14">
          <mxGeometry y="332" width="160" height="34" as="geometry" />
        </mxCell>
        <mxCell id="do9_wxUMpQGBXien9zyn-18" value="" style="endArrow=classic;html=1;rounded=0;fillColor=#f9f7ed;strokeColor=#36393d;" edge="1" parent="WIyWlLk6GJQsqaUBKTNV-1">
          <mxGeometry width="50" height="50" relative="1" as="geometry">
            <mxPoint x="209.5" y="148" as="sourcePoint" />
            <mxPoint x="209.5" y="228" as="targetPoint" />
          </mxGeometry>
        </mxCell>
      </root>
    </mxGraphModel>
  </diagram>
</mxfile>
